<?xml version="1.0" encoding="UTF-8"?>
<svg xmlns="http://www.w3.org/2000/svg" xmlns:xlink="http://www.w3.org/1999/xlink" viewBox="0 0 52 52" width="52px" height="52px">
<g id="surface131763045">
<path style=" stroke:none;fill-rule:nonzero;fill:rgb(63.529414%,10.980392%,68.627453%);fill-opacity:1;" d="M 25.8125 -0.0625 C 25.726562 -0.046875 25.640625 -0.0234375 25.5625 0 C 24.632812 0.210938 23.976562 1.046875 24 2 L 24 8 C 23.992188 8.71875 24.367188 9.390625 24.992188 9.757812 C 25.617188 10.117188 26.382812 10.117188 27.007812 9.757812 C 27.632812 9.390625 28.007812 8.71875 28 8 L 28 2 C 28.023438 1.421875 27.789062 0.867188 27.375 0.476562 C 26.953125 0.078125 26.382812 -0.117188 25.8125 -0.0625 Z M 8.625 7 C 7.875 7.132812 7.273438 7.679688 7.0625 8.40625 C 6.851562 9.140625 7.070312 9.921875 7.625 10.4375 L 11.875 14.6875 C 12.359375 15.28125 13.132812 15.554688 13.882812 15.382812 C 14.625 15.210938 15.210938 14.625 15.382812 13.882812 C 15.554688 13.132812 15.28125 12.359375 14.6875 11.875 L 10.4375 7.625 C 10.023438 7.179688 9.421875 6.953125 8.8125 7 C 8.75 7 8.6875 7 8.625 7 Z M 42.75 7 C 42.296875 7.0625 41.875 7.289062 41.5625 7.625 L 37.3125 11.875 C 36.71875 12.359375 36.445312 13.132812 36.617188 13.882812 C 36.789062 14.625 37.375 15.210938 38.117188 15.382812 C 38.867188 15.554688 39.640625 15.28125 40.125 14.6875 L 44.375 10.4375 C 45 9.84375 45.179688 8.914062 44.8125 8.132812 C 44.4375 7.34375 43.609375 6.890625 42.75 7 Z M 26 14.25 C 19.578125 14.25 14.375 19.453125 14.375 25.875 C 14.375 32.46875 20.0625 36.304688 20.0625 39.6875 L 20.0625 40.5 C 20.0625 41.320312 20.75 42 21.5625 42 L 30.4375 42 C 31.25 42 31.9375 41.320312 31.9375 40.5 L 31.9375 39.6875 C 31.9375 36.296875 37.625 32.578125 37.625 25.875 C 37.625 19.453125 32.421875 14.25 26 14.25 Z M 26 18.125 C 27.46875 18.125 28.835938 18.539062 30 19.25 C 29.859375 19.242188 29.703125 19.1875 29.5625 19.1875 C 24.101562 19.1875 19.6875 23.609375 19.6875 29 C 19.6875 29.335938 19.71875 29.671875 19.75 30 C 18.875 28.773438 18.3125 27.234375 18.3125 25.625 C 18.3125 21.460938 21.773438 18.125 26 18.125 Z M 1.4375 24 C 0.335938 24.15625 -0.4375 25.179688 -0.28125 26.28125 C -0.125 27.382812 0.898438 28.15625 2 28 L 8 28 C 8.71875 28.007812 9.390625 27.632812 9.757812 27.007812 C 10.117188 26.382812 10.117188 25.617188 9.757812 24.992188 C 9.390625 24.367188 8.71875 23.992188 8 24 L 2 24 C 1.9375 24 1.875 24 1.8125 24 C 1.75 24 1.6875 24 1.625 24 C 1.5625 24 1.5 24 1.4375 24 Z M 43.4375 24 C 42.335938 24.15625 41.5625 25.179688 41.71875 26.28125 C 41.875 27.382812 42.898438 28.15625 44 28 L 50 28 C 50.71875 28.007812 51.390625 27.632812 51.757812 27.007812 C 52.117188 26.382812 52.117188 25.617188 51.757812 24.992188 C 51.390625 24.367188 50.71875 23.992188 50 24 L 44 24 C 43.9375 24 43.875 24 43.8125 24 C 43.75 24 43.6875 24 43.625 24 C 43.5625 24 43.5 24 43.4375 24 Z M 13.0625 36.6875 C 12.609375 36.75 12.1875 36.976562 11.875 37.3125 L 7.625 41.5625 C 7.03125 42.046875 6.757812 42.820312 6.929688 43.570312 C 7.101562 44.3125 7.6875 44.898438 8.429688 45.070312 C 9.179688 45.242188 9.953125 44.96875 10.4375 44.375 L 14.6875 40.125 C 15.28125 39.554688 15.460938 38.671875 15.140625 37.914062 C 14.828125 37.15625 14.070312 36.671875 13.25 36.6875 C 13.1875 36.6875 13.125 36.6875 13.0625 36.6875 Z M 38.3125 36.6875 C 37.5625 36.820312 36.960938 37.367188 36.75 38.09375 C 36.539062 38.828125 36.757812 39.609375 37.3125 40.125 L 41.5625 44.375 C 42.046875 44.96875 42.820312 45.242188 43.570312 45.070312 C 44.3125 44.898438 44.898438 44.3125 45.070312 43.570312 C 45.242188 42.820312 44.96875 42.046875 44.375 41.5625 L 40.125 37.3125 C 39.75 36.914062 39.234375 36.695312 38.6875 36.6875 C 38.625 36.6875 38.5625 36.6875 38.5 36.6875 C 38.4375 36.6875 38.375 36.6875 38.3125 36.6875 Z M 21.5 44 C 20.679688 44 20 44.671875 20 45.5 L 20 48.5 C 20 49.328125 20.679688 50 21.5 50 L 22.75 50 C 23.40625 51.148438 24.585938 51.9375 26 51.9375 C 27.414062 51.9375 28.59375 51.148438 29.25 50 L 30.5 50 C 31.320312 50 32 49.328125 32 48.5 L 32 45.5 C 32 44.671875 31.320312 44 30.5 44 Z M 21.5 44 "/>
</g>
</svg>
